<?xml version="1.0" encoding="utf-8"?>
<!-- Generator: Adobe Illustrator 27.5.0, SVG Export Plug-In . SVG Version: 6.00 Build 0)  -->
<svg version="1.1" id="Layer_1" xmlns="http://www.w3.org/2000/svg" xmlns:xlink="http://www.w3.org/1999/xlink" x="0px" y="0px"
	 viewBox="0 0 512 512" style="enable-background:new 0 0 512 512;" xml:space="preserve">
<style type="text/css">
	.st0{fill:#FFFFFF;}
</style>
<path class="st0" d="M298.7,490.7L298.7,490.7c0,11.7-9.6,21.3-21.3,21.3h-256C9.6,512,0,502.4,0,490.7l0,0
	c0-82.6,66.8-149.3,149.3-149.3l0,0C231.9,341.3,298.7,408.1,298.7,490.7z M234.7,213.3c0-47.1-38.2-85.3-85.3-85.3
	S64,166.2,64,213.3s38.2,85.3,85.3,85.3S234.7,260.5,234.7,213.3z M405.3,0H192C134.6,0,88.1,45.7,85.8,102.4
	c18.8-10.9,40.3-17.1,63.6-17.1c58.5,0,107.5,39.3,122.9,92.8l47.8,47.8l76.6-76.6h-33.9c-11.7,0-21.3-9.6-21.3-21.3
	s9.6-21.3,21.3-21.3h64c23.5,0,42.7,19.2,42.7,42.7v64c0,11.7-9.6,21.3-21.3,21.3c-11.7,0-21.3-9.6-21.3-21.3v-33.9L350.1,256
	c-16.6,16.6-43.7,16.6-60.4,0l-15.4-15.4c0,0,0,0.2,0,0.4c-6.6,30.1-23.9,56.1-47.6,74c33.5,14.7,61.9,38.8,82.1,68.9h96.6
	c58.9,0,106.7-47.8,106.7-106.7V106.7C512.2,47.8,464.4,0,405.5,0H405.3z"/>
</svg>
