<?xml version="1.0" encoding="utf-8"?>
<!-- Generator: Adobe Illustrator 27.5.0, SVG Export Plug-In . SVG Version: 6.00 Build 0)  -->
<svg version="1.1" id="Layer_1" xmlns="http://www.w3.org/2000/svg" xmlns:xlink="http://www.w3.org/1999/xlink" x="0px" y="0px"
	 viewBox="0 0 512 512" style="enable-background:new 0 0 512 512;" xml:space="preserve">
<style type="text/css">
	.st0{fill:#FFFFFF;}
</style>
<path class="st0" d="M298.7,149.3V9.8c19.7,7.5,37.7,19,52.6,33.9l74.3,74.4c14.9,14.9,26.5,32.8,33.9,52.6H320
	C308.2,170.7,298.7,161.1,298.7,149.3L298.7,149.3z M469.3,223.7v181.7c-0.1,58.9-47.8,106.6-106.7,106.7H149.3
	c-58.9-0.1-106.6-47.8-106.7-106.7V106.7C42.7,47.8,90.5,0.1,149.3,0h96.3c3.5,0,6.9,0.3,10.3,0.5v148.8c0,35.3,28.7,64,64,64h148.8
	C469.1,216.8,469.3,220.2,469.3,223.7L469.3,223.7z M298.7,405.3c0-11.8-9.6-21.3-21.3-21.3H170.7c-11.8,0-21.3,9.6-21.3,21.3
	s9.6,21.3,21.3,21.3h106.7C289.1,426.7,298.7,417.1,298.7,405.3z M362.7,320c0-11.8-9.6-21.3-21.3-21.3H170.7
	c-11.8,0-21.3,9.6-21.3,21.3s9.6,21.3,21.3,21.3h170.7C353.1,341.3,362.7,331.8,362.7,320z"/>
</svg>
