<?xml version="1.0" encoding="utf-8"?>
<!-- Generator: Adobe Illustrator 27.5.0, SVG Export Plug-In . SVG Version: 6.00 Build 0)  -->
<svg version="1.1" id="Layer_1" xmlns="http://www.w3.org/2000/svg" xmlns:xlink="http://www.w3.org/1999/xlink" x="0px" y="0px"
	 viewBox="0 0 512 512" style="enable-background:new 0 0 512 512;" xml:space="preserve">
<style type="text/css">
	.st0{fill:#FFFFFF;}
</style>
<path class="st0" d="M281.3,341.3h-50.6c-23.1,0-43.6-14.9-50.7-36.8l-15.6-48.1c-7.2-22,0.6-46.2,19.4-59.7l40.9-29.6
	c18.7-13.6,44-13.6,62.7,0l40.9,29.7c18.8,13.6,26.6,37.7,19.4,59.7L332,304.6C324.8,326.5,304.4,341.3,281.3,341.3L281.3,341.3z
	 M512,256c0,141.4-114.6,256-256,256S0,397.4,0,256S114.6,0,256,0C397.3,0.2,511.8,114.7,512,256z M256,448c11-0.1,22.1-1.1,32.9-3
	l18.1-59.3c8.4-26.4,33-44.4,60.7-44.5l60.1-0.1c9.7-19.4,16-40.3,18.6-61.9l-48-32c-22.7-15.9-32.5-44.7-24.3-71.2l18.2-54.9
	c-15.3-15.3-33-28-52.4-37.5l-46.3,32.1c-22.4,16.4-52.8,16.4-75.3,0L173.3,83c-19.2,9.2-36.7,21.4-51.8,36.3l16.4,56.7
	c8.2,26.5-1.6,55.3-24.3,71.2l-47.7,34c2.7,20.8,8.9,41.1,18.3,59.9l60.1,0.1c27.8,0,52.3,18,60.8,44.4l18.5,59.4
	C234.2,446.9,245.1,447.9,256,448L256,448z"/>
</svg>
